<?xml version="1.0" encoding="UTF-8" standalone="no"?><!DOCTYPE svg PUBLIC "-//W3C//DTD SVG 1.1//EN" "http://www.w3.org/Graphics/SVG/1.1/DTD/svg11.dtd"><svg width="100%" height="100%" viewBox="0 0 594 594" version="1.1" xmlns="http://www.w3.org/2000/svg" xmlns:xlink="http://www.w3.org/1999/xlink" xml:space="preserve" xmlns:serif="http://www.serif.com/" style="fill-rule:evenodd;clip-rule:evenodd;stroke-linejoin:round;stroke-miterlimit:2;"><circle id="Avatar" cx="296.789" cy="296.789" r="296.789" style="fill:#fff;"/><clipPath id="_clip1"><circle cx="296.789" cy="296.789" r="296.789"/></clipPath><g clip-path="url(#_clip1)"><path d="M296.789,353.398c163.802,0 296.788,53.81 296.788,120.09c0,66.279 -132.986,120.089 -296.788,120.089c-163.803,0 -296.789,-53.81 -296.789,-120.089c0,-66.28 132.986,-120.09 296.789,-120.09Zm-0,-259.595c66.279,0 120.089,53.811 120.089,120.09c0,66.279 -53.81,120.089 -120.089,120.089c-66.28,0 -120.09,-53.81 -120.09,-120.089c0,-66.279 53.81,-120.09 120.09,-120.09Z" style="fill:#404040;"/></g></svg>